<svg width="143" height="50" viewBox="0 0 143 50" fill="none" xmlns="http://www.w3.org/2000/svg">
<g clip-path="url(#clip0_198_1888)">
<path fill-rule="evenodd" clip-rule="evenodd" d="M34.7954 27.6285C35.8565 27.4026 36.9132 28.0201 37.1555 29.0087C37.3988 29.9974 36.7353 30.9812 35.6743 31.2079C31.6942 32.0576 28.1902 33.4639 25.1623 35.4282C22.7864 36.9693 20.6992 38.8573 18.8988 41.0938C19.4455 41.2449 20 41.3741 20.5597 41.4813C21.8762 41.7332 23.2625 41.8656 24.7028 41.8656C30.362 41.8656 35.4842 39.7282 39.1922 36.2739C42.5628 33.1332 44.7643 28.9031 45.1365 24.1978C36.4694 22.3593 28.8005 23.3131 22.1317 27.059C14.9467 31.0949 8.82364 38.3804 3.76338 48.9138C3.32047 49.8383 2.15654 50.2535 1.16437 49.84C0.172191 49.4281 -0.273329 48.3427 0.169575 47.4182C1.9595 43.6926 3.88456 40.3424 5.94738 37.3658C4.30916 35.5387 2.97173 33.4647 2.00484 31.2095C0.881884 28.5887 0.263736 25.7405 0.263736 22.7728C0.263736 16.485 3.0005 10.7918 7.42256 6.67051C11.8455 2.54927 17.9564 0 24.7045 0C27.9932 0 31.1415 0.611728 34.023 1.72145C37.0099 2.87098 39.6979 4.55424 41.9464 6.64127C42.7171 7.35536 42.7197 8.51707 41.9534 9.23522C41.187 9.95337 39.9403 9.95743 39.1687 9.24253C37.2785 7.48777 35.0256 6.07503 32.526 5.11398C30.1266 4.19029 27.4849 3.68012 24.7037 3.68012C19.0453 3.68012 13.9223 5.81669 10.2143 9.27178C6.50711 12.7269 4.21325 17.4996 4.21325 22.772C4.21325 25.288 4.72678 27.6789 5.66141 29.8577C6.331 31.4207 7.21942 32.883 8.29181 34.2145C11.8568 29.7626 15.7924 26.3287 20.0968 23.9102C28.069 19.4315 37.2131 18.4493 47.5289 20.9628C48.447 21.1205 49.1436 21.8703 49.1436 22.772C49.1436 29.0599 46.4068 34.7531 41.9848 38.8752C37.5627 42.9964 31.4519 45.5449 24.7037 45.5449C23.0367 45.5449 21.3862 45.3832 19.7733 45.0745C18.1185 44.7585 16.5396 44.2938 15.0548 43.6983V43.6951C14.9633 43.6577 14.8726 43.6138 14.7845 43.5618C13.8639 43.0216 13.5883 41.8891 14.1673 41.0321C16.5492 37.5185 19.4638 34.6451 22.9103 32.4094C26.348 30.1794 30.3097 28.5863 34.7954 27.6285" fill="#7367F0"/>
</g>
<path d="M74.4508 36.3123C72.3582 36.3123 70.5298 35.8435 68.9656 34.906C67.4014 33.9685 66.186 32.6664 65.3194 30.9998C64.4527 29.3123 64.0194 27.3539 64.0194 25.1248C64.0194 22.8748 64.4633 20.8956 65.3511 19.1873C66.26 17.4581 67.5388 16.1143 69.1875 15.156C70.8574 14.1768 72.8338 13.6873 75.1166 13.6873C77.7166 13.6873 79.8726 14.3018 81.5847 15.531C83.2969 16.7602 84.4066 18.4581 84.9139 20.6248H80.3799C80.0417 19.6039 79.4287 18.8123 78.5409 18.2498C77.6531 17.6664 76.5117 17.3748 75.1166 17.3748C72.8972 17.3748 71.185 18.0727 69.9802 19.4685C68.7754 20.8435 68.1729 22.7393 68.1729 25.156C68.1729 27.5727 68.7648 29.4477 69.9485 30.781C71.1533 32.0935 72.7809 32.7498 74.8313 32.7498C76.8393 32.7498 78.3507 32.2185 79.3653 31.156C80.401 30.0727 81.0246 28.656 81.236 26.906H75.6239V23.906H85.3261V35.9373H81.5847L81.2677 33.0623C80.549 34.1039 79.6506 34.906 78.5726 35.4685C77.4946 36.031 76.1207 36.3123 74.4508 36.3123Z" fill="#333333"/>
<path d="M89.1764 35.9373V20.4373H92.791L93.1714 23.3435C93.7421 22.3435 94.5137 21.5518 95.486 20.9685C96.4795 20.3643 97.642 20.0623 98.9737 20.0623V24.281H97.8323C96.9445 24.281 96.1518 24.4164 95.4543 24.6873C94.7568 24.9581 94.2072 25.4268 93.8056 26.0935C93.4251 26.7602 93.2348 27.6873 93.2348 28.8748V35.9373H89.1764Z" fill="#333333"/>
<path d="M109.015 36.3123C107.493 36.3123 106.119 35.9685 104.893 35.281C103.688 34.5935 102.727 33.6456 102.008 32.4373C101.31 31.2081 100.962 29.7914 100.962 28.1873C100.962 26.5831 101.321 25.1768 102.04 23.9685C102.758 22.7393 103.72 21.781 104.925 21.0935C106.151 20.406 107.525 20.0623 109.047 20.0623C110.547 20.0623 111.9 20.406 113.105 21.0935C114.331 21.781 115.293 22.7393 115.99 23.9685C116.709 25.1768 117.068 26.5831 117.068 28.1873C117.068 29.7914 116.709 31.2081 115.99 32.4373C115.293 33.6456 114.331 34.5935 113.105 35.281C111.879 35.9685 110.516 36.3123 109.015 36.3123ZM109.015 32.8435C110.072 32.8435 110.991 32.4581 111.773 31.6873C112.556 30.8956 112.947 29.7289 112.947 28.1873C112.947 26.6456 112.556 25.4893 111.773 24.7185C110.991 23.9268 110.082 23.531 109.047 23.531C107.969 23.531 107.039 23.9268 106.257 24.7185C105.496 25.4893 105.115 26.6456 105.115 28.1873C105.115 29.7289 105.496 30.8956 106.257 31.6873C107.039 32.4581 107.958 32.8435 109.015 32.8435Z" fill="#333333"/>
<path d="M123.215 35.9373L118.618 20.4373H122.645L125.371 31.5935L128.542 20.4373H133.044L136.215 31.5935L138.973 20.4373H143L138.371 35.9373H134.154L130.793 24.3435L127.432 35.9373H123.215Z" fill="#333333"/>
<defs>
<clipPath id="clip0_198_1888">
<rect width="49.1449" height="50" fill="white"/>
</clipPath>
</defs>
</svg>
