<svg width="16" height="16" viewBox="0 0 16 16" fill="none" xmlns="http://www.w3.org/2000/svg">
<g clip-path="url(#clip0_198_1903)">
<path fill-rule="evenodd" clip-rule="evenodd" d="M10.6245 8.7538C10.918 8.69042 11.2103 8.86369 11.2773 9.14116C11.3446 9.41863 11.1611 9.69473 10.8676 9.75834C9.76669 9.99682 8.79747 10.3915 7.95992 10.9428C7.30275 11.3753 6.72542 11.9051 6.22742 12.5328C6.37863 12.5752 6.53201 12.6114 6.68683 12.6415C7.05098 12.7122 7.43443 12.7494 7.83283 12.7494C9.3982 12.7494 10.815 12.1495 11.8407 11.1801C12.773 10.2987 13.3819 9.11152 13.4849 7.79099C11.0875 7.27504 8.96628 7.5427 7.12164 8.59398C5.13424 9.72664 3.44056 11.7713 2.04087 14.7274C1.91836 14.9869 1.59641 15.1034 1.32197 14.9873C1.04753 14.8718 0.924293 14.5672 1.0468 14.3077C1.54191 13.2621 2.07439 12.3219 2.64498 11.4865C2.19183 10.9738 1.82189 10.3917 1.55445 9.75879C1.24383 9.02329 1.07285 8.22395 1.07285 7.39109C1.07285 5.62643 1.82985 4.02865 3.05302 2.87205C4.27643 1.71544 5.96672 1 7.83331 1C8.74297 1 9.6138 1.17168 10.4108 1.48312C11.2371 1.80573 11.9806 2.27813 12.6025 2.86384C12.8157 3.06425 12.8164 3.39027 12.6044 3.59182C12.3925 3.79337 12.0476 3.79451 11.8342 3.59387C11.3113 3.10141 10.6882 2.70493 9.99676 2.43521C9.33309 2.17599 8.60237 2.03281 7.83307 2.03281C6.26793 2.03281 4.85087 2.63243 3.82522 3.60208C2.7998 4.57173 2.16531 5.91119 2.16531 7.39086C2.16531 8.09695 2.30735 8.76794 2.56587 9.37941C2.75109 9.81807 2.99683 10.2285 3.29346 10.6021C4.27956 9.35274 5.36816 8.38901 6.55877 7.71028C8.76395 6.45336 11.2932 6.17771 14.1467 6.88312C14.4006 6.92735 14.5933 7.13779 14.5933 7.39086C14.5933 9.15552 13.8363 10.7533 12.6131 11.9101C11.3899 13.0667 9.69965 13.7819 7.83307 13.7819C7.37197 13.7819 6.91545 13.7366 6.4693 13.6499C6.01158 13.5613 5.57484 13.4308 5.16414 13.2637V13.2628C5.13882 13.2523 5.11374 13.24 5.08938 13.2254C4.83472 13.0738 4.75851 12.756 4.91864 12.5155C5.57749 11.5294 6.38369 10.723 7.337 10.0955C8.2879 9.4697 9.38373 9.0226 10.6245 8.7538" fill="#7367F0"/>
</g>
<defs>
<clipPath id="clip0_198_1903">
<rect width="13.5938" height="14.0323" fill="white" transform="translate(1 1)"/>
</clipPath>
</defs>
</svg>
